<svg xmlns="http://www.w3.org/2000/svg" viewBox="0 0 308 116"><defs><style>.cls-1{fill:#c4ccf2;}.cls-2{fill:#f2d3e3;}.cls-2,.cls-3{opacity:0.45;}.cls-3{fill:#ecf2d3;}.cls-4{fill:#d3daed;opacity:0.5;}</style></defs><g id="圖層_2" data-name="圖層 2"><g id="圖層_1-2" data-name="圖層 1"><path class="cls-1" d="M115,80,99.24,78.68a.52.52,0,0,0-.3.95,104.66,104.66,0,0,1,13.1,11,.52.52,0,0,1,0,.74l-1.18,1.08a.47.47,0,0,1-.57.08c-1.8-1-7.31,1.66-9.11.55a.54.54,0,0,0-.37-.09c-14.56,2-21.91-1.19-31-.81a.51.51,0,0,1-.54-.45l-.13-1.13a.57.57,0,0,1,.22-.61,46.07,46.07,0,0,0,11.73-10.5.53.53,0,0,0-.42-.85H63.59a.52.52,0,0,1-.52-.52V77a.52.52,0,0,1,.52-.52H114.7a.52.52,0,0,1,.52.52v1.12C115.22,78.45,115.29,80,115,80Zm-1.68-17.81H112a.52.52,0,0,1-.52-.52V52.28a.52.52,0,0,0-.52-.52H91a.52.52,0,0,0-.52.52V65.16a.53.53,0,0,1-.52.52H88.55a.53.53,0,0,1-.52-.52V52.28a.52.52,0,0,0-.52-.52h-20a.52.52,0,0,0-.52.52v9.39a.52.52,0,0,1-.52.52H64.88A.53.53,0,0,1,64.5,62L53.83,50.87A.52.52,0,0,1,54.2,50l33.32-.39a.53.53,0,0,0,.51-.52V44.72a.52.52,0,0,0-.52-.52H66.44A2.17,2.17,0,0,1,68.61,42l40.85-9.9a.52.52,0,0,1,.63.42l1.84,11.05a.53.53,0,0,1-.52.6H91a.52.52,0,0,0-.52.52v4.35a.52.52,0,0,0,.52.52h22.36a.52.52,0,0,1,.52.52V61.67A.52.52,0,0,1,113.32,62.19ZM109.78,71H68.4a.52.52,0,0,1-.52-.52V69.36a.52.52,0,0,1,.52-.52L110,67c.29,0,.3,2.07.3,2.36v1.13A.52.52,0,0,1,109.78,71ZM84,63a111.61,111.61,0,0,1-12.9,2.72.53.53,0,0,1-.59-.36l-.28-.92a.54.54,0,0,1,.39-.78,82.46,82.46,0,0,0,12.69-2.6.52.52,0,0,1,.62.29l.4.94A.52.52,0,0,1,84,63Zm-.14-4.35h0a.53.53,0,0,1-.61.3q-6.81-1.62-12.09-2.32a.52.52,0,0,1-.39-.76l.44-.82c.17-.3.37-.4.58-.37,3.27.44,6.81.4,10.25.82A2.29,2.29,0,0,1,83.9,58.65ZM102.71,85.6q-3.63-2.91-6.6-5a.52.52,0,0,1-.06-.8l1.18-1.12H85a.52.52,0,0,0-.41.21,46.69,46.69,0,0,1-10.14,10,.52.52,0,0,0,.35.94Q85,89,102.45,86.53A.53.53,0,0,0,102.71,85.6Zm6.16-25.08-1.2,4.87a.52.52,0,0,1-.64.38c-3.86-1.06-7.92-1.75-13.2-2.67a.52.52,0,0,1-.39-.74l.44-.88a.55.55,0,0,1,.58-.38c5.38.65,10.29-1.88,14-1.22A.52.52,0,0,1,108.87,60.52Zm-1.19-3.64a109.28,109.28,0,0,1-12.87,2.27.52.52,0,0,1-.56-.34l-.34-1a.51.51,0,0,1,.44-.68,84,84,0,0,0,12.73-2.29.52.52,0,0,1,.62.32l.32.89A.57.57,0,0,1,107.68,56.88Z"/><path class="cls-1" d="M144.37,50.18H142V46.57H123.25V44.44L139,39l3,1.66h2.4Zm28.57,26.1h-2.41l-.16-.34a9.3,9.3,0,0,0-7.84-5.27l-15.14-.92a41.65,41.65,0,0,1-4.34,4.92h21.48L166,81c-7.72,8.85-21.14,9.92-37.33,11.66l-1.14-2c6.69-.65,7.9-4,12.47-5.64-2.36-2.93-.49-3.24-3.25-5.35a41.87,41.87,0,0,1-8.7,4.25l-1.43-1.73Q138,78.1,144.49,69.75L128,72l-.3,4.28h-2.4v-8.7h47.64ZM170,65l-41.16-2.28V52.46h40.87Zm-28.32-4.31V54.51H131.19v6.18Zm20,16.09H140.77l-2,1.55a59.26,59.26,0,0,1,8.08,7.91A41.6,41.6,0,0,0,161.66,76.78Zm-7.15-16.09V54.51H144v6.18ZM175,49l-18.5-2.43v3.61L152,46l2.1-5.34h2.4v3.78h18.72Zm-7.63,11.69V54.51L162,55l-5.15,5.69Z"/><path class="cls-1" d="M235.22,91.1h-52L187,82l21,6.82V66.55H186.5V64.3H208V44.49H185.18V42.21L233,35l.29,9.49H210.44L215,57l17,7.3v2.25H210.44V88.82h24.78Z"/><path class="cls-1" d="M292.29,92.6,286,93l3.89-4.82H248.55V92.6h-2.4V42h46.14Zm-2.4-6.53V44.2L252,49l-3.45,37.07Zm-2.4-11.28a28,28,0,0,1-2.13,5.65,8.54,8.54,0,0,1-2.11,3,3,3,0,0,1-1.65.55q-2.24,0-6-7.42A41,41,0,0,1,268.27,84l-1.79-1.67a38.57,38.57,0,0,0,8.09-8.09,66.89,66.89,0,0,1-3.52-19H251.42V53h19.51l-.05-3.49.05-3.13h2.32q0,4.4.14,6.62H287v5l-13.49-2.84a70.39,70.39,0,0,0,2.81,16.58,61.84,61.84,0,0,0,6.48-12.48l2.11.88c-2.15,5.25-1,9.66-3.91,13.86,1.86,4.53-.42,7.11.6,7.11s2.43-2.5,3.84-7.52Zm-17.64,1.49a145.72,145.72,0,0,1-18.14,4.28l-.29-2.29a126,126,0,0,0,18.25-4.16Zm-3-4.69H254.47V60.46L269,58Zm-2.4-2.08v-7h-7.62v7Zm18.92-18.89-2,.93a14.79,14.79,0,0,0-3.07-4.07l1.93-1.08A23.93,23.93,0,0,1,283.41,50.62Z"/><path class="cls-2" d="M308,44a34,34,0,0,1-34,34c-18.78,0-28.4-16.08-34-34C230,12,257.22,0,276,0S308,25.22,308,44Z"/><path class="cls-3" d="M220,42.5C215.68,57.63,207.24,71,191.5,71A28.5,28.5,0,0,1,163,42.5C163,26.76,176.26,3,192,3S225,25,220,42.5Z"/><path class="cls-4" d="M175,79c0-12.7-19.48-23-43.5-23a73.91,73.91,0,0,0-23.39,3.61A26.2,26.2,0,0,0,112,46c0-17.67-18.36-32-41-32S30,28.33,30,46a25.56,25.56,0,0,0,2.27,10.49C13.88,58.83,0,69.36,0,82c0,14.36,17.91,26,40,26,10.63,0,20.29-2.7,27.45-7.1,6,8.91,19,15.1,34.05,15.1,14.51,0,27.08-5.72,33.32-14.07C157.29,101,175,91.11,175,79Z"/></g></g></svg>